# xmcd CD database file
#
# Track frame offsets:
#	150
#	6970
#	17097
#	28365
#	36865
#	48577
#	63875
#	75730
#	92227
#	114232
#	135400
#	150857
#
# Disc length: 2221 seconds
#
# Revision: 1
# Processed by: cddbd v1.5.2PL0 Copyright (c) Steve Scherf et al.
# Submitted via: CDex 1.51
#
DISCID=8c08ab0c
DTITLE=Aretha Franklin - Blued, Jazz 'n' Soul - Volume 03
DYEAR=2006
DGENRE=Jazz
TTITLE0=This could be the start of something
TTITLE1=Bill Bailey, won't you please come home?
TTITLE2=Love for sale
TTITLE3=More
TTITLE4=If I had a hammer
TTITLE5=Once in a lifetime
TTITLE6=Over the rainbow
TTITLE7=Unforgettable
TTITLE8=Only the lonely
TTITLE9=There is no greater love
TTITLE10=Impossible
TTITLE11=What a difference a day more
EXTD=YEAR: 2006
EXTT0=
EXTT1=
EXTT2=
EXTT3=
EXTT4=
EXTT5=
EXTT6=
EXTT7=
EXTT8=
EXTT9=
EXTT10=
EXTT11=
PLAYORDER=
